<svg xmlns="http://www.w3.org/2000/svg" width="1200" height="1500" viewBox="0 0 900 1125">
<defs>
<linearGradient id="bg" x1="0" y1="0" x2="1" y2="1"><stop stop-color="#fffdf7"/><stop offset="1" stop-color="#f6ead5"/></linearGradient>
<linearGradient id="lid" x1="0" y1="0" x2="0" y2="1"><stop stop-color="#F6D36B"/><stop offset=".45" stop-color="#B77708"/><stop offset="1" stop-color="#6E4200"/></linearGradient>
<linearGradient id="ghee" x1="0" y1="0" x2="0" y2="1"><stop stop-color="#FFE36C"/><stop offset="1" stop-color="#D99300"/></linearGradient>
<filter id="shadow"><feDropShadow dx="0" dy="25" stdDeviation="24" flood-color="#4c351e" flood-opacity=".22"/></filter>
</defs>
<rect width="900" height="1125" fill="url(#bg)"/>
<ellipse cx="450" cy="980" rx="215" ry="38" fill="#8a6b42" opacity=".15"/>
<g filter="url(#shadow)">
<rect x="200" y="110" width="500" height="720" rx="78" fill="url(#ghee)" stroke="#d6a84b" stroke-width="6"/>
<rect x="188" y="102" width="524" height="86" rx="36" fill="url(#lid)"/>
<rect x="224" y="300" width="452" height="440" rx="20" fill="#FFF8EA" stroke="#ead9bd" stroke-width="3"/>
<g transform="translate(450 372)">
<path d="M0-42c29 26 33 52 11 67-17 12-39 2-43-18-3-18 13-34 32-49Z" fill="#D99A12"/>
<path d="M-58 10c24 27 56 35 90 22-14 31-48 51-83 40-13-4-22-15-26-29-3-10 5-22 19-33Z" fill="#D99A12"/>
</g>
<text x="450" y="475" text-anchor="middle" font-family="Georgia,serif" font-size="62" font-weight="700" fill="#10342B" letter-spacing="3">NYAANO</text>
<text x="450" y="525" text-anchor="middle" font-family="serif" font-size="40" font-weight="700" fill="#D99A12">न्यानो</text>
<path d="M270 565 Q450 510 630 565" fill="none" stroke="#F0C45A" stroke-width="6" opacity=".35"/>
<g transform="translate(15 145)"><path d="M196 460c34-27 90-35 138-15 28-31 78-36 106-5 26 29 15 65-18 77-21 8-46 2-61-11-19 21-50 33-83 30-45-4-81-29-92-61-2-7 2-12 10-15Z" fill="#D99A12" stroke="#5b3b21" stroke-width="6"/><circle cx="438" cy="453" r="19" fill="#D99A12"/><path d="M438 436l-10-18M438 436l14-17" stroke="#5b3b21" stroke-width="5" stroke-linecap="round"/><path d="M232 520v45M316 526v39M372 516v49M421 505v60" stroke="#5b3b21" stroke-width="8" stroke-linecap="round"/></g>
<text x="450" y="685" text-anchor="middle" font-family="Georgia,serif" font-size="54" font-weight="700" fill="#10342B">COW GHEE</text>
<text x="450" y="738" text-anchor="middle" font-family="serif" font-size="34" font-weight="700" fill="#D99A12">गाईको घ्यू</text>
<text x="450" y="785" text-anchor="middle" font-family="Arial,sans-serif" font-size="24" fill="#263d35">असल घ्यू, सबैको लागि।</text>
<text x="450" y="820" text-anchor="middle" font-family="Georgia,serif" font-size="22" fill="#263d35">Good ghee, for everyone.</text>
<line x1="300" y1="855" x2="600" y2="855" stroke="#F0C45A" stroke-width="3"/>
<text x="450" y="910" text-anchor="middle" font-family="Georgia,serif" font-size="42" font-weight="700" fill="#10342B">500 ml</text>
</g>
</svg>